# xmcd CD database file
#
# Track frame offsets:
#	150
#	24721
#	42020
#	77131
#	97457
#	112936
#	127698
#	152589
#	173703
#	197149
#	220635
#	249318
#	279591
#	305849
#
# Disc length: 4458 seconds
#
# Revision: 2
# Processed by: cddbd v1.5.2PL0 Copyright (c) Steve Scherf et al.
# Submitted via: CDex 1.70beta2
#
DISCID=b811680e
DTITLE=Charly Antolini - Power Drummer
DYEAR=2007
DGENRE=Jazz
TTITLE0=Attention
TTITLE1=Drum-Organ
TTITLE2=Yeah Man
TTITLE3=A Happy Afternoon
TTITLE4=Locomotion
TTITLE5=Wiener Blues
TTITLE6=La Belle
TTITLE7=Dear Charles
TTITLE8=Woe's All Over Me
TTITLE9=Handicraft
TTITLE10=Scratches
TTITLE11=Y Luego
TTITLE12=Senor Hoche
TTITLE13=Special Delivery
EXTD=YEAR: 2007
EXTT0=
EXTT1=
EXTT2=
EXTT3=
EXTT4=
EXTT5=
EXTT6=
EXTT7=
EXTT8=
EXTT9=
EXTT10=
EXTT11=
EXTT12=
EXTT13=
PLAYORDER=
